FILE "Genetic Species (1998)(Vulcan)(Track 1 of 9)[AGA-RTG][S SIM 0039 03].iso" BINARY
  TRACK 01 MODE1/2048
    INDEX 01 00:00:00
FILE "Genetic Species (1998)(Vulcan)(Track 2 of 9)[AGA-RTG][S SIM 0039 03].wav" WAVE
  TRACK 02 AUDIO
    TITLE "Track02"
    INDEX 00 33:52:45
    INDEX 01 00:00:00
FILE "Genetic Species (1998)(Vulcan)(Track 3 of 9)[AGA-RTG][S SIM 0039 03].wav" WAVE
  TRACK 03 AUDIO
    TITLE "Track03"
    INDEX 00 04:01:25
    INDEX 01 00:00:00
FILE "Genetic Species (1998)(Vulcan)(Track 4 of 9)[AGA-RTG][S SIM 0039 03].wav" WAVE
  TRACK 04 AUDIO
    TITLE "Track04"
    INDEX 00 05:06:42
    INDEX 01 00:00:00
FILE "Genetic Species (1998)(Vulcan)(Track 5 of 9)[AGA-RTG][S SIM 0039 03].wav" WAVE
  TRACK 05 AUDIO
    TITLE "Track05"
    INDEX 00 04:15:51
    INDEX 01 00:00:00
FILE "Genetic Species (1998)(Vulcan)(Track 6 of 9)[AGA-RTG][S SIM 0039 03].wav" WAVE
  TRACK 06 AUDIO
    TITLE "Track06"
    INDEX 00 04:55:41
    INDEX 01 00:00:00
FILE "Genetic Species (1998)(Vulcan)(Track 7 of 9)[AGA-RTG][S SIM 0039 03].wav" WAVE
  TRACK 07 AUDIO
    TITLE "Track07"
    INDEX 00 06:56:04
    INDEX 01 00:00:00
FILE "Genetic Species (1998)(Vulcan)(Track 8 of 9)[AGA-RTG][S SIM 0039 03].wav" WAVE
  TRACK 08 AUDIO
    TITLE "Track08"
    INDEX 00 01:45:13
    INDEX 01 00:00:00
FILE "Genetic Species (1998)(Vulcan)(Track 9 of 9)[AGA-RTG][S SIM 0039 03].wav" WAVE
  TRACK 09 AUDIO
    TITLE "Track09"
    INDEX 00 01:15:56
    INDEX 01 00:00:00
